<?xml version="1.0" encoding="UTF-8" standalone="no"?>
<!-- Created with Inkscape (http://www.inkscape.org/) -->

<svg
   width="184.95564mm"
   height="41.755249mm"
   viewBox="0 0 61.651881 13.918416"
   version="1.1"
   id="svg1"
   inkscape:version="1.3.2 (091e20e, 2023-11-25, custom)"
   sodipodi:docname="colorful-mode-logo.svg"
   xmlns:inkscape="http://www.inkscape.org/namespaces/inkscape"
   xmlns:sodipodi="http://sodipodi.sourceforge.net/DTD/sodipodi-0.dtd"
   xmlns:xlink="http://www.w3.org/1999/xlink"
   xmlns="http://www.w3.org/2000/svg"
   xmlns:svg="http://www.w3.org/2000/svg"
   xmlns:rdf="http://www.w3.org/1999/02/22-rdf-syntax-ns#"
   xmlns:cc="http://creativecommons.org/ns#">
  <sodipodi:namedview
     id="namedview1"
     pagecolor="#505050"
     bordercolor="#ffffff"
     borderopacity="1"
     inkscape:showpageshadow="0"
     inkscape:pageopacity="0"
     inkscape:pagecheckerboard="1"
     inkscape:deskcolor="#505050"
     inkscape:document-units="mm"
     inkscape:zoom="0.69166115"
     inkscape:cx="333.97857"
     inkscape:cy="57.108889"
     inkscape:window-width="1292"
     inkscape:window-height="745"
     inkscape:window-x="66"
     inkscape:window-y="-8"
     inkscape:window-maximized="1"
     inkscape:current-layer="layer1" />
  <defs
     id="defs1">
    <linearGradient
       id="linearGradient23"
       inkscape:collect="always">
      <stop
         style="stop-color:#353232;stop-opacity:1;"
         offset="0"
         id="stop23" />
      <stop
         style="stop-color:#422e2e;stop-opacity:1;"
         offset="1"
         id="stop24" />
    </linearGradient>
    <inkscape:path-effect
       effect="spiro"
       id="path-effect3"
       is_visible="true"
       lpeversion="1" />
    <linearGradient
       id="swatch2"
       inkscape:swatch="solid">
      <stop
         style="stop-color:#332aa7;stop-opacity:1;"
         offset="0"
         id="stop2" />
    </linearGradient>
    <rect
       x="134.09746"
       y="536.75128"
       width="231.32713"
       height="53.132954"
       id="rect12" />
    <rect
       x="119.61275"
       y="540.30206"
       width="250.47115"
       height="46.004906"
       id="rect11" />
    <rect
       x="140.24208"
       y="526.26929"
       width="213.71407"
       height="80.360466"
       id="rect1" />
    <linearGradient
       inkscape:collect="always"
       xlink:href="#linearGradient23"
       id="linearGradient24"
       x1="27.692263"
       y1="88.359756"
       x2="40.067112"
       y2="101.13702"
       gradientUnits="userSpaceOnUse" />
  </defs>
  <g
     inkscape:label="Layer 1"
     inkscape:groupmode="layer"
     id="layer1"
     transform="translate(-26.914163,-86.195259)">
    <g
       id="g21"
       transform="matrix(0.7035566,0,0,0.7035566,10.108821,26.350167)">
      <path
         id="circle17"
         style="fill:#353232;fill-rule:evenodd;stroke:url(#linearGradient24);stroke-width:1.42135;paint-order:fill markers stroke"
         d="m 42.958537,94.952278 a 9.1807966,9.1807966 0 0 1 -9.180797,9.180792 9.1807966,9.1807966 0 0 1 -9.180796,-9.180792 9.1807966,9.1807966 0 0 1 9.180796,-9.180796 9.1807966,9.1807966 0 0 1 9.180797,9.180796 z" />
      <path
         id="path2"
         style="fill:#e58409;fill-opacity:1;fill-rule:evenodd;stroke:none;stroke-width:0.5;stroke-dasharray:none;stroke-opacity:1;paint-order:fill markers stroke"
         d="m 25.802798,99.454348 7.967989,-4.600236 -7.886857,-4.55321 a 9.1807966,9.1807966 0 0 0 -1.286743,4.651395 9.1807966,9.1807966 0 0 0 1.205611,4.502051 z" />
      <path
         id="path21"
         style="fill:#d3ef04;fill-opacity:1;fill-rule:evenodd;stroke:none;stroke-width:0.5;stroke-dasharray:none;stroke-opacity:1;paint-order:fill markers stroke"
         d="m 33.771304,94.854112 -7.968506,4.600236 a 9.1807966,9.1807966 0 0 0 7.968506,4.678272 z" />
      <path
         id="path20"
         style="fill:#792aa7;fill-opacity:1;fill-rule:evenodd;stroke:none;stroke-width:0.5;stroke-dasharray:none;stroke-opacity:1;paint-order:fill markers stroke"
         d="m 33.771304,94.854112 v 9.278508 a 9.1807966,9.1807966 0 0 0 0.0062,5.1e-4 9.1807966,9.1807966 0 0 0 7.972124,-4.672581 z" />
      <path
         id="path19"
         style="fill:#2815df;fill-opacity:1;fill-rule:evenodd;stroke:none;stroke-width:0.5;stroke-dasharray:none;stroke-opacity:1;paint-order:fill markers stroke"
         d="m 33.771304,94.854112 7.978325,4.606437 a 9.1807966,9.1807966 0 0 0 1.208711,-4.508252 9.1807966,9.1807966 0 0 0 -1.275374,-4.665865 z" />
      <path
         id="path18"
         style="fill:#d70005;fill-opacity:1;fill-rule:evenodd;stroke:none;stroke-width:0.5;stroke-dasharray:none;stroke-opacity:1;paint-order:fill markers stroke"
         d="m 33.771304,85.771979 a 9.1807966,9.1807966 0 0 0 -7.887374,4.528923 l 7.886857,4.55321 h 5.17e-4 z" />
      <path
         id="path17"
         style="fill:#00d123;fill-opacity:1;fill-rule:evenodd;stroke:none;stroke-width:0.5;stroke-dasharray:none;stroke-opacity:1;paint-order:fill markers stroke"
         d="m 33.771304,85.771979 v 9.082133 l 7.911662,-4.56768 a 9.1807966,9.1807966 0 0 0 -7.905461,-4.51497 9.1807966,9.1807966 0 0 0 -0.0062,5.17e-4 z" />
    </g>
    <path
       id="rect24"
       style="fill:#b53c3c;fill-opacity:1;fill-rule:evenodd;stroke-width:0.761968;paint-order:fill markers stroke"
       d="m 40.494091,88.968628 h 19.211414 v 9.56333 H 40.494091 Z" />
    <path
       id="rect25"
       style="fill:#664a83;fill-rule:evenodd;stroke-width:0.636983;paint-order:fill markers stroke"
       d="M 59.210648,88.968628 H 72.63649 v 9.56333 H 59.210648 Z" />
    <g
       id="text2"
       style="font-size:9.87777px;font-family:'Fira Sans';-inkscape-font-specification:'Fira Sans';letter-spacing:0.264583px;fill:#332aa7;fill-rule:evenodd;stroke-width:0.264583;paint-order:fill markers stroke"
       aria-label="olorful">
      <path
         style="fill:#3f3b3b"
         d="m 43.191642,91.353532 q 1.096432,0 1.698976,0.730955 0.612422,0.730955 0.612422,1.985432 0,0.809977 -0.276578,1.432277 -0.276577,0.612422 -0.800099,0.958144 -0.523522,0.335844 -1.244599,0.335844 -1.096433,0 -1.708854,-0.730955 -0.612422,-0.730955 -0.612422,-1.985432 0,-0.809977 0.276577,-1.422399 0.276578,-0.6223 0.8001,-0.958144 0.523522,-0.345722 1.254477,-0.345722 z m 0,0.730955 q -1.353255,0 -1.353255,1.99531 0,1.985432 1.343377,1.985432 1.343377,0 1.343377,-1.99531 0,-1.985432 -1.333499,-1.985432 z m 5.114564,4.711697 q -0.503766,0 -0.800099,-0.296333 -0.286455,-0.306211 -0.286455,-0.849489 v -6.272384 l 0.908754,-0.108655 v 6.361284 q 0,0.217311 0.06914,0.316088 0.07902,0.09878 0.256822,0.09878 0.187678,0 0.335844,-0.05927 l 0.237067,0.632177 q -0.325967,0.1778 -0.721078,0.1778 z m 4.028015,-5.442652 q 1.096432,0 1.698976,0.730955 0.612422,0.730955 0.612422,1.985432 0,0.809977 -0.276578,1.432277 -0.276577,0.612422 -0.800099,0.958144 -0.523522,0.335844 -1.244599,0.335844 -1.096433,0 -1.708854,-0.730955 -0.612422,-0.730955 -0.612422,-1.985432 0,-0.809977 0.276577,-1.422399 0.276578,-0.6223 0.8001,-0.958144 0.523522,-0.345722 1.254477,-0.345722 z m 0,0.730955 q -1.353255,0 -1.353255,1.99531 0,1.985432 1.343377,1.985432 1.343377,0 1.343377,-1.99531 0,-1.985432 -1.333499,-1.985432 z m 6.339408,-0.730955 q 0.276578,0 0.513644,0.05927 l -0.167922,0.888999 q -0.237067,-0.05927 -0.454378,-0.05927 -0.48401,0 -0.780343,0.355599 -0.296334,0.3556 -0.464256,1.106311 V 96.67765 H 56.41162 v -5.205585 h 0.780343 l 0.0889,1.056922 q 0.207433,-0.582789 0.563033,-0.879122 0.3556,-0.296333 0.829733,-0.296333 z"
         id="path25" />
      <path
         style="font-style:italic;-inkscape-font-specification:'Fira Sans Italic';fill:#3f3b3b"
         d="m 62.83005,90.000278 q -0.424744,0 -0.642055,0.197555 -0.217311,0.187678 -0.2667,0.582789 l -0.09878,0.691443 h 1.254477 l -0.197556,0.701322 H 61.72374 l -0.592666,4.217808 q -0.09878,0.721077 -0.335844,1.145821 -0.227189,0.434622 -0.602544,0.701322 -0.365478,0.2667 -1.007533,0.543278 l -0.256822,-0.681567 q 0.414866,-0.187677 0.651933,-0.365477 0.246944,-0.1778 0.404988,-0.493889 0.167923,-0.316088 0.246945,-0.849488 l 0.592666,-4.217808 H 59.90623 l 0.09878,-0.701322 h 0.918633 l 0.108655,-0.740832 q 0.0889,-0.671689 0.553155,-1.0668 0.464255,-0.39511 1.214966,-0.39511 0.3556,0 0.632177,0.0889 0.276578,0.0889 0.592667,0.286455 l -0.345722,0.602544 q -0.36548,-0.246944 -0.849491,-0.246944 z"
         id="path26" />
      <path
         style="fill:#3f3b3b"
         d="m 67.875479,96.67765 h -0.780344 l -0.06915,-0.809977 q -0.296333,0.484011 -0.681566,0.7112 -0.385233,0.217311 -0.938388,0.217311 -0.681566,0 -1.066799,-0.414867 -0.385233,-0.414866 -0.385233,-1.175454 v -3.733798 h 0.908755 v 3.63502 q 0,0.5334 0.187677,0.760588 0.187678,0.217311 0.612422,0.217311 0.760588,0 1.303866,-0.898877 v -3.714042 h 0.908755 z m 3.178532,0.118534 q -0.503766,0 -0.800099,-0.296333 -0.286456,-0.306211 -0.286456,-0.849489 v -6.272384 l 0.908755,-0.108655 v 6.361284 q 0,0.217311 0.06914,0.316088 0.07902,0.09878 0.256823,0.09878 0.187677,0 0.335844,-0.05927 l 0.237066,0.632177 q -0.325966,0.1778 -0.721077,0.1778 z"
         id="path27" />
    </g>
    <path
       style="font-style:italic;font-weight:300;font-size:4.9389px;font-family:'Fira Sans';-inkscape-font-specification:'Fira Sans Light Italic';letter-spacing:0.264583px;fill:#3f3b3b;fill-rule:evenodd;stroke-width:0.5;paint-order:fill markers stroke"
       d="m 73.654073,89.708517 0.03951,-0.246945 h 1.298931 l -0.03457,0.246945 z m 5.124464,-1.214969 q 0.256823,0 0.400051,0.167922 0.148167,0.162984 0.148167,0.454379 0,0.07902 -0.01482,0.177801 l -0.261762,1.83727 H 78.76372 l 0.256823,-1.812576 q 0.01482,-0.09878 0.01482,-0.1778 0,-0.40499 -0.340785,-0.40499 -0.227189,0 -0.439562,0.22225 -0.212372,0.222251 -0.429684,0.612424 l -0.22225,1.560692 h -0.286457 l 0.256823,-1.812576 q 0.01482,-0.09878 0.01482,-0.1778 0,-0.40499 -0.340784,-0.40499 -0.232129,0 -0.444501,0.227189 -0.207434,0.222251 -0.424746,0.622302 L 76.16092,91.13092 h -0.286456 l 0.365478,-2.583044 h 0.246945 l -0.06914,0.637118 q 0.414867,-0.691446 0.913696,-0.691446 0.251884,0 0.400051,0.167922 0.153106,0.167923 0.148167,0.474135 0.400051,-0.642057 0.89888,-0.642057 z m 2.447581,2.6917 q -0.444501,0 -0.691446,-0.276578 -0.242006,-0.276578 -0.242006,-0.770468 0,-0.370418 0.128411,-0.745774 0.128411,-0.380296 0.414868,-0.637118 0.291395,-0.261762 0.745774,-0.261762 0.449439,0 0.691446,0.271639 0.242006,0.27164 0.242006,0.76553 0,0.365478 -0.128412,0.745774 -0.123472,0.380295 -0.414867,0.646996 -0.291395,0.261761 -0.745774,0.261761 z m 0.0099,-0.242006 q 0.350661,0 0.567973,-0.227189 0.222251,-0.22719 0.31609,-0.553157 0.09384,-0.330906 0.09384,-0.651935 0,-0.385234 -0.162984,-0.58279 -0.162984,-0.197556 -0.474134,-0.197556 -0.355601,0 -0.577852,0.232128 -0.22225,0.22719 -0.316089,0.558096 -0.09384,0.330906 -0.09384,0.642057 0,0.385234 0.167922,0.58279 0.167923,0.197556 0.479074,0.197556 z m 4.497221,-3.447352 -0.513646,3.63503 h -0.246945 l 0.03951,-0.523523 q -0.153106,0.261762 -0.365479,0.419807 -0.212373,0.158044 -0.488951,0.158044 -0.375357,0 -0.587729,-0.271639 -0.207434,-0.27164 -0.207434,-0.745774 0,-0.375356 0.123472,-0.760591 0.123473,-0.385234 0.395112,-0.646996 0.27164,-0.2667 0.691446,-0.2667 0.439563,0 0.681569,0.355601 L 85.4517,87.461318 Z m -1.12113,1.234725 q -0.330907,0 -0.548218,0.232128 -0.212373,0.22719 -0.306212,0.563035 -0.09384,0.330906 -0.09384,0.656874 0,0.370417 0.138289,0.567973 0.143228,0.192617 0.395112,0.192617 0.266701,0 0.464257,-0.1778 0.197556,-0.177801 0.400051,-0.528462 l 0.162983,-1.12607 q -0.108656,-0.1778 -0.251884,-0.276578 -0.143228,-0.103717 -0.360539,-0.103717 z m 3.953936,0.385234 q 0,0.474135 -0.464256,0.706263 -0.464257,0.227189 -1.318686,0.291395 v 0.02963 q 0,0.40499 0.172861,0.597607 0.1778,0.192617 0.484012,0.192617 0.202495,0 0.370418,-0.05927 0.172861,-0.06421 0.360539,-0.197556 l 0.128412,0.202495 q -0.207434,0.153105 -0.424746,0.232128 -0.212372,0.07408 -0.454378,0.07408 -0.444501,0 -0.691446,-0.271639 -0.246945,-0.27164 -0.246945,-0.76553 0,-0.390173 0.138289,-0.770468 0.143228,-0.380295 0.439562,-0.632179 0.301273,-0.251884 0.740835,-0.251884 0.36054,0 0.563035,0.1778 0.202494,0.172862 0.202494,0.444501 z m -0.765529,-0.385234 q -0.444501,0 -0.696385,0.340784 -0.246945,0.340784 -0.306212,0.814919 0.740835,-0.05927 1.106314,-0.237068 0.365478,-0.1778 0.365478,-0.523523 0,-0.167923 -0.118533,-0.281517 -0.118534,-0.113595 -0.350662,-0.113595 z"
       id="text3"
       aria-label="-mode" />
    <path
       style="font-size:12.7px;font-family:'Lucida Console';-inkscape-font-specification:'Lucida Console';letter-spacing:0.264583px;fill:#ffffff;fill-rule:evenodd;stroke-width:0.8;paint-order:fill markers stroke"
       d="m 36.785435,96.780312 q -1.227832,0.440283 -2.313037,0.440283 -1.897559,0 -3.057178,-1.134815 -1.159619,-1.141015 -1.159619,-2.995166 0,-1.878955 1.153418,-3.044775 1.153418,-1.16582 3.013769,-1.16582 1.054199,0 2.257227,0.359668 v 1.122412 q -1.227832,-0.564307 -2.294434,-0.564307 -1.234033,0 -2.033984,0.905371 -0.79375,0.905371 -0.79375,2.306836 0,1.413867 0.89917,2.313037 0.89917,0.89917 2.313037,0.89917 0.855761,0 2.015381,-0.446484 z"
       id="text21"
       aria-label="C" />
  </g>
  <metadata
     id="metadata12">
    <rdf:RDF>
      <cc:Work
         rdf:about="">
        <cc:license
           rdf:resource="http://creativecommons.org/licenses/by-sa/4.0/" />
      </cc:Work>
      <cc:License
         rdf:about="http://creativecommons.org/licenses/by-sa/4.0/">
        <cc:permits
           rdf:resource="http://creativecommons.org/ns#Reproduction" />
        <cc:permits
           rdf:resource="http://creativecommons.org/ns#Distribution" />
        <cc:requires
           rdf:resource="http://creativecommons.org/ns#Notice" />
        <cc:requires
           rdf:resource="http://creativecommons.org/ns#Attribution" />
        <cc:permits
           rdf:resource="http://creativecommons.org/ns#DerivativeWorks" />
        <cc:requires
           rdf:resource="http://creativecommons.org/ns#ShareAlike" />
      </cc:License>
    </rdf:RDF>
  </metadata>
</svg>
